<svg xmlns="http://www.w3.org/2000/svg" viewBox="0 0 24 24" fill="currentColor"><path d="M12 .5C5.65.5.5 5.65.5 12A11.5 11.5 0 008.2 22.93c.6.1.82-.26.82-.58v-2.03c-3.34.73-4.04-1.41-4.04-1.41-.55-1.39-1.34-1.76-1.34-1.76-1.1-.75.08-.73.08-.73 1.22.08 1.86 1.25 1.86 1.25 1.08 1.86 2.84 1.32 3.53 1 .11-.79.42-1.32.76-1.63-2.66-.3-5.46-1.33-5.46-5.92 0-1.31.47-2.39 1.24-3.23-.13-.3-.54-1.53.12-3.18 0 0 1.01-.32 3.3 1.23a11.43 11.43 0 016 0c2.28-1.55 3.29-1.23 3.29-1.23.66 1.65.25 2.88.12 3.18.77.84 1.24 1.92 1.24 3.23 0 4.6-2.81 5.61-5.49 5.91.43.37.82 1.1.82 2.23v3.31c0 .32.21.69.82.58A11.5 11.5 0 0023.5 12C23.5 5.65 18.35.5 12 .5z"/></svg>